<?xml version="1.0" encoding="UTF-8" standalone="no"?>
<!DOCTYPE svg PUBLIC "-//W3C//DTD SVG 1.1//EN" "http://www.w3.org/Graphics/SVG/1.1/DTD/svg11.dtd">
<svg width="100%" height="100%" viewBox="0 0 477 197" version="1.1" xmlns="http://www.w3.org/2000/svg" xmlns:xlink="http://www.w3.org/1999/xlink" xml:space="preserve" xmlns:serif="http://www.serif.com/" style="fill-rule:evenodd;clip-rule:evenodd;stroke-linejoin:round;stroke-miterlimit:2;">
    <path d="M24.549,194.21L2.934,194.21L2.934,2.65L192.964,2.65C276.319,2.65 289.473,77.531 289.473,77.531L336.248,2.65L385.263,2.65L474.86,147.89L446.792,194.204L328.652,194.204L328.652,171.098L460.792,171.098L360.702,2.648C360.702,2.648 294.738,117.428 280.577,139.788C266.415,162.149 239.814,194.199 194.25,194.199L123.681,194.199L123.681,80.159L146.042,80.159L146.042,171.092L197.471,171.092C220.215,171.092 269.025,151.713 269.025,96.93C269.025,42.147 216.85,25.004 199.707,25.004L24.547,25.004L24.547,194.194L24.549,194.21ZM32.002,194.21L32.002,112.967L115.482,112.967L115.482,135.328L54.362,135.328L54.362,194.211L32.001,194.211L32.002,194.21ZM115.482,103.277L115.482,80.171L54.362,80.171L54.362,55.663L195.003,55.663C216.085,55.663 238.469,72.717 238.469,97.686C238.469,122.655 215.844,139.798 199.711,139.798L177.787,139.798L177.787,80.17L154.681,80.17L154.681,162.159L199.711,162.159C228.231,162.159 261.202,137.405 261.202,98.431C261.202,59.83 231.216,33.213 195.358,33.213L32.008,33.213L32.008,103.276L115.487,103.276L115.482,103.277ZM258.212,194.21L360.702,25.02L444.927,162.16L328.657,162.16L328.657,139.799L403.937,139.799L360.707,69.363L289.526,194.213L258.221,194.213L258.212,194.21Z" style="fill:white;fill-rule:nonzero;"/>
</svg>
