<?xml version="1.0" encoding="UTF-8" standalone="no"?>
<!DOCTYPE svg PUBLIC "-//W3C//DTD SVG 1.1//EN" "http://www.w3.org/Graphics/SVG/1.1/DTD/svg11.dtd">
<svg width="100%" height="100%" viewBox="0 0 784 375" version="1.1" xmlns="http://www.w3.org/2000/svg" xmlns:xlink="http://www.w3.org/1999/xlink" xml:space="preserve" xmlns:serif="http://www.serif.com/" style="fill-rule:evenodd;clip-rule:evenodd;stroke-linejoin:round;stroke-miterlimit:2;">
    <g transform="matrix(4.16667,0,0,4.16667,-12.5,-216.667)">
        <path d="M9.36,53.112C5.905,53.112 3.094,55.924 3.094,59.379L3.094,134.733C3.094,138.188 5.905,141 9.36,141L157.748,140.999C175.631,140.999 190.181,126.449 190.181,108.566L190.181,85.545C190.181,67.661 175.631,53.111 157.748,53.111L9.36,53.112ZM4.948,134.733L4.948,59.379C4.948,56.946 6.927,54.966 9.36,54.966L157.748,54.965C174.61,54.965 188.326,68.684 188.326,85.545L188.326,108.566C188.326,125.426 174.61,139.144 157.748,139.144L9.36,139.146C6.927,139.146 4.948,137.167 4.948,134.733Z" style="fill:white;"/>
        <path d="M83.009,54.395L83.009,108.566C83.009,126.449 97.558,140.999 115.441,140.999L115.441,139.144C98.58,139.144 84.863,125.426 84.863,108.566L84.863,54.395L83.009,54.395Z" style="fill:white;"/>
        <path d="M12.381,131.497L10.824,131.497L10.824,125.361L8.571,125.361L8.571,124.043L14.634,124.043L14.634,125.361L12.381,125.361L12.381,131.497Z" style="fill:white;"/>
        <path d="M22.065,128.892C22.065,130.854 20.881,131.694 19.002,131.694C18.317,131.694 17.299,131.528 16.634,130.792C16.229,130.334 16.073,129.733 16.053,128.985L16.053,124.043L17.641,124.043L17.641,128.881C17.641,129.919 18.243,130.376 18.971,130.376C20.04,130.376 20.475,129.858 20.475,128.954L20.475,124.043L22.065,124.043L22.065,128.892Z" style="fill:white;"/>
        <path d="M28.54,124.043L30.16,124.043L27.626,131.497L26.142,131.497L23.629,124.043L25.301,124.043L26.899,129.691L26.92,129.691L28.54,124.043Z" style="fill:white;"/>
        <path d="M33.901,124.043L37.67,124.043C39.654,124.043 40.017,125.506 40.017,126.15C40.017,126.97 39.602,127.676 38.864,127.925C39.477,128.196 39.809,128.425 39.809,129.815C39.809,130.905 39.809,131.176 40.141,131.3L40.141,131.497L38.418,131.497C38.314,131.145 38.252,130.76 38.252,129.991C38.252,128.974 38.189,128.58 37.037,128.58L35.428,128.58L35.428,131.497L33.901,131.497L33.901,124.043Z" style="fill:white;"/>
        <path d="M37.255,127.323C38.065,127.323 38.46,127.043 38.46,126.306C38.46,125.91 38.283,125.329 37.37,125.329L35.428,125.329L35.428,127.323L37.255,127.323Z" style="fill:white;"/>
        <path d="M45.981,131.497L44.527,131.497L44.527,128.144C44.527,127.738 44.506,127.053 43.582,127.053C42.939,127.053 42.44,127.489 42.44,128.331L42.44,131.497L40.986,131.497L40.986,124.043L42.44,124.043L42.44,126.69L42.461,126.69C42.648,126.233 43.27,125.829 44.06,125.829C45.14,125.829 45.981,126.461 45.981,127.676L45.981,131.497Z" style="fill:white;"/>
        <path d="M52.055,129.878C51.671,131.206 50.57,131.642 49.626,131.642C48.068,131.642 46.875,130.894 46.875,128.62C46.875,127.957 47.102,125.829 49.522,125.829C50.612,125.829 52.117,126.348 52.117,128.871L52.117,129.13L48.328,129.13C48.369,129.545 48.453,130.48 49.626,130.48C50.031,130.48 50.446,130.272 50.56,129.878L52.055,129.878Z" style="fill:white;"/>
        <path d="M50.622,128.184C50.539,127.292 49.969,127.023 49.501,127.023C48.816,127.023 48.453,127.459 48.369,128.184L50.622,128.184Z" style="fill:white;"/>
        <rect x="53.013" y="125.972" width="1.454" height="5.525" style="fill:white;"/>
        <rect x="53.013" y="123.969" width="1.454" height="1.35" style="fill:white;"/>
        <path d="M60.554,131.497L59.1,131.497L59.1,128.144C59.1,127.738 59.079,127.053 58.155,127.053C57.511,127.053 57.013,127.489 57.013,128.331L57.013,131.497L55.559,131.497L55.559,125.972L56.951,125.972L56.951,126.784L56.971,126.784C57.169,126.45 57.584,125.829 58.633,125.829C59.713,125.829 60.554,126.461 60.554,127.676L60.554,131.497Z" style="fill:white;"/>
        <rect x="61.74" y="124.043" width="1.453" height="7.454" style="fill:white;"/>
        <path d="M69.132,130.417C69.132,131.072 69.278,131.216 69.454,131.28L69.454,131.497L67.886,131.497C67.803,131.238 67.782,131.156 67.751,130.842C67.419,131.186 66.952,131.642 65.965,131.642C65.134,131.642 64.283,131.176 64.283,130.033C64.283,128.954 64.968,128.403 65.892,128.268L67.201,128.07C67.429,128.039 67.709,127.945 67.709,127.634C67.709,127.023 67.129,126.991 66.754,126.991C66.028,126.991 65.903,127.437 65.861,127.759L64.46,127.759C64.625,126.066 65.799,125.829 66.931,125.829C67.709,125.829 69.132,126.066 69.132,127.427L69.132,130.417Z" style="fill:white;"/>
        <path d="M67.709,128.808C67.564,128.922 67.325,129.016 66.723,129.11C66.183,129.203 65.736,129.337 65.736,129.94C65.736,130.448 66.131,130.605 66.411,130.605C67.055,130.605 67.709,130.189 67.709,129.514L67.709,128.808Z" style="fill:white;"/>
        <path d="M75.312,131.497L73.859,131.497L73.859,128.144C73.859,127.738 73.838,127.053 72.913,127.053C72.269,127.053 71.771,127.489 71.771,128.331L71.771,131.497L70.318,131.497L70.318,125.972L71.709,125.972L71.709,126.784L71.73,126.784C71.927,126.45 72.343,125.829 73.392,125.829C74.471,125.829 75.312,126.461 75.312,127.676L75.312,131.497Z" style="fill:white;"/>
        <path d="M81.41,131.497L79.987,131.497L79.987,130.802L79.966,130.802C79.614,131.425 78.97,131.642 78.367,131.642C76.727,131.642 76.042,130.189 76.042,128.672C76.042,126.763 77.121,125.829 78.336,125.829C79.271,125.829 79.707,126.336 79.935,126.69L79.957,126.69L79.957,124.043L81.41,124.043L81.41,131.497Z" style="fill:white;"/>
        <path d="M78.731,130.448C79.655,130.448 80.019,129.681 80.019,128.859C80.019,127.977 79.769,127.085 78.772,127.085C77.849,127.085 77.537,127.905 77.537,128.777C77.537,129.432 77.797,130.448 78.731,130.448Z" style="fill:white;"/>
        <path d="M16.815,122.144C17.358,122.144 17.798,121.703 17.798,121.16C17.798,120.617 17.358,120.176 16.815,120.176C16.272,120.176 15.831,120.617 15.831,121.16C15.831,121.703 16.272,122.144 16.815,122.144Z" style="fill:white;"/>
        <path d="M20.894,122.144C21.437,122.144 21.878,121.703 21.878,121.16C21.878,120.617 21.437,120.176 20.894,120.176C20.351,120.176 19.911,120.617 19.911,121.16C19.911,121.703 20.351,122.144 20.894,122.144Z" style="fill:white;"/>
        <path d="M24.051,110.367C30.029,111.132 38.311,110.518 46.667,107.81C57.012,104.459 65.981,105.229 71.419,106.703L75.036,113.373C70.772,111.333 59.832,108.923 46.667,113.187C33.503,117.452 20.523,116.525 16.444,113.187L46.575,63.31L69.757,103.705C64.246,102.524 56.019,102.185 46.667,105.215C40.263,107.289 33.903,108.135 28.59,108.072L31.927,102.619C36.472,102.366 41.556,101.493 46.667,99.837C51.6,98.239 56.221,97.579 60.295,97.484L46.482,73.323L24.051,110.367Z" style="fill:white;"/>
        <path d="M133.072,136.736L113.047,136.736C106.557,136.736 86.948,128.391 87.296,107.625C87.459,96.685 94.876,79.627 116.292,79.627L131.867,79.627C132.145,80.925 132.886,85.282 134.926,87.785L134.926,94.831L117.126,94.831C108.967,94.831 103.22,98.354 102.849,107.254C102.478,116.154 109.709,120.975 117.497,120.975L117.497,115.968C113.974,115.783 107.67,114.114 107.67,107.625C107.67,101.135 113.047,100.023 117.126,100.023L133.072,100.023L133.072,136.736Z" style="fill:white;"/>
        <path d="M167.467,115.192C177.278,115.192 185.232,107.238 185.232,97.427C185.232,87.616 177.278,79.661 167.467,79.661L151.521,79.583C149.855,79.583 148.505,78.232 148.505,76.567C148.505,74.902 149.855,73.552 151.521,73.552L166.355,73.508L166.355,58.802L151.521,58.802C141.71,58.802 133.756,66.756 133.756,76.567C133.756,86.379 141.71,94.796 151.521,94.796L167.467,94.813C168.934,94.813 170.124,95.91 170.124,97.377C170.124,98.845 168.934,100.034 167.467,100.034L134.926,100.034L134.926,115.227L167.467,115.192Z" style="fill:white;"/>
        <path d="M141.442,119.162L140.647,122.9C140.502,123.581 140.209,124.716 138.266,124.716C137.451,124.716 136.664,124.367 136.798,123.53L137.926,123.53C137.926,123.73 137.965,123.93 138.566,123.93C139.123,123.93 139.447,123.663 139.582,123.025L139.683,122.551L139.672,122.537C139.436,122.839 139.116,123.129 138.492,123.129C137.544,123.129 136.934,122.47 137.228,121.09C137.517,119.725 138.43,119.058 139.298,119.058C140.032,119.058 140.238,119.489 140.308,119.748L140.324,119.748L140.448,119.162L141.442,119.162Z" style="fill:white;"/>
        <path d="M145.15,121.951C144.672,122.9 143.822,123.21 143.145,123.21C142.033,123.21 141.295,122.677 141.64,121.053C141.74,120.579 142.227,119.058 143.954,119.058C144.733,119.058 145.73,119.429 145.347,121.231L145.306,121.417L142.601,121.417C142.568,121.713 142.485,122.381 143.322,122.381C143.612,122.381 143.94,122.232 144.081,121.951L145.15,121.951Z" style="fill:white;"/>
        <path d="M147.326,119.734L147.34,119.734C147.6,119.422 147.966,119.058 148.663,119.058C149.531,119.058 150.159,119.725 149.869,121.09C149.639,122.173 148.929,123.21 147.759,123.21C147.032,123.21 146.856,122.819 146.776,122.603L146.761,122.603L146.327,124.642L145.289,124.642L146.454,119.162L147.448,119.162L147.326,119.734Z" style="fill:white;"/>
        <path d="M150.998,119.162L151.993,119.162L151.848,119.844L151.863,119.844C152.163,119.444 152.482,119.058 153.113,119.058C153.18,119.058 153.243,119.065 153.31,119.073L153.085,120.126C153,120.111 152.889,120.111 152.792,120.111C151.984,120.111 151.728,120.615 151.635,121.053L151.2,123.107L150.161,123.107L150.998,119.162Z" style="fill:white;"/>
        <path d="M156.611,123.107L155.617,123.107L155.736,122.551L155.722,122.551C155.394,122.974 154.93,123.21 154.379,123.21C153.601,123.21 153.132,122.765 153.348,121.758L153.898,119.162L154.937,119.162L154.417,121.609C154.286,122.218 154.618,122.336 154.937,122.336C155.279,122.336 155.779,122.142 155.928,121.438L156.413,119.162L157.45,119.162L156.611,123.107Z" style="fill:white;"/>
        <path d="M158.784,123.107L157.747,123.107L158.427,119.904L157.856,119.904L158.013,119.162L158.585,119.162L158.652,118.843C158.825,118.028 159.336,117.716 160.049,117.716C160.351,117.716 160.492,117.724 160.579,117.73L160.401,118.569L160.111,118.569C159.756,118.569 159.726,118.68 159.656,119.006L159.623,119.162L160.296,119.162L160.14,119.904L159.465,119.904L158.784,123.107Z" style="fill:white;"/>
        <path d="M162.054,119.162L162.698,119.162L162.542,119.904L161.896,119.904L161.441,122.046C161.392,122.276 161.38,122.366 161.803,122.366C161.87,122.366 161.945,122.358 162.02,122.351L161.854,123.136C161.69,123.145 161.525,123.151 161.361,123.151L161.228,123.151C160.331,123.151 160.24,122.81 160.349,122.299L160.857,119.904L160.324,119.904L160.48,119.162L161.016,119.162L161.242,118.094L162.28,118.094L162.054,119.162Z" style="fill:white;"/>
        <path d="M166.153,121.951C165.678,122.9 164.825,123.21 164.151,123.21C163.039,123.21 162.298,122.677 162.643,121.053C162.744,120.579 163.231,119.058 164.959,119.058C165.737,119.058 166.734,119.429 166.352,121.231L166.311,121.417L163.605,121.417C163.572,121.713 163.489,122.381 164.326,122.381C164.616,122.381 164.943,122.232 165.085,121.951L166.153,121.951Z" style="fill:white;"/>
        <path d="M138.207,129.024C138.152,129.322 138.179,129.884 139.152,129.884C139.677,129.884 140.292,129.759 140.41,129.194C140.499,128.78 140.122,128.668 139.588,128.535L139.044,128.4C138.226,128.202 137.438,128.009 137.686,126.837C137.812,126.243 138.353,125.197 140.08,125.197C141.713,125.197 141.923,126.265 141.791,126.918L140.723,126.918C140.745,126.681 140.775,126.117 139.805,126.117C139.381,126.117 138.843,126.274 138.742,126.754C138.653,127.171 138.976,127.259 139.188,127.311L140.418,127.63C141.106,127.808 141.71,128.105 141.507,129.061C141.167,130.663 139.505,130.803 139.039,130.803C137.096,130.803 136.999,129.685 137.14,129.024L138.207,129.024Z" style="fill:white;"/>
        <path d="M143.836,126.718L142.999,130.663L141.96,130.663L142.799,126.718L143.836,126.718Z" style="fill:white;"/>
        <path d="M143.936,126.25L142.899,126.25L143.103,125.286L144.142,125.286L143.936,126.25Z" style="fill:white;"/>
        <path d="M147.694,129.225C147.569,129.632 147.01,130.767 145.564,130.767C144.081,130.767 143.981,129.632 144.156,128.801C144.429,127.526 145.177,126.614 146.513,126.614C147.136,126.614 148.099,126.896 147.934,128.126L146.881,128.126C146.891,127.867 146.815,127.46 146.327,127.489C145.675,127.489 145.365,128.141 145.262,128.63C145.17,129.061 145.004,129.914 145.789,129.914C146.316,129.914 146.601,129.41 146.64,129.225L147.694,129.225Z" style="fill:white;"/>
        <path d="M151.682,130.663L150.643,130.663L151.153,128.267C151.214,127.979 151.302,127.489 150.643,127.489C150.182,127.489 149.761,127.801 149.634,128.4L149.153,130.663L148.114,130.663L149.247,125.338L150.284,125.338L149.883,127.23L149.897,127.23C150.1,126.904 150.606,126.614 151.171,126.614C151.941,126.614 152.445,127.066 152.261,127.934L151.682,130.663Z" style="fill:white;"/>
        <path d="M156.28,129.507C155.803,130.454 154.951,130.767 154.276,130.767C153.164,130.767 152.425,130.232 152.77,128.609C152.871,128.135 153.358,126.614 155.085,126.614C155.864,126.614 156.86,126.985 156.478,128.787L156.438,128.972L153.73,128.972C153.697,129.269 153.614,129.936 154.453,129.936C154.742,129.936 155.072,129.788 155.212,129.507L156.28,129.507Z" style="fill:white;"/>
        <path d="M157.599,126.718L158.593,126.718L158.448,127.399L158.463,127.399C158.762,127 159.083,126.614 159.713,126.614C159.779,126.614 159.845,126.621 159.908,126.629L159.685,127.682C159.6,127.667 159.488,127.667 159.392,127.667C158.583,127.667 158.329,128.171 158.235,128.609L157.799,130.663L156.76,130.663L157.599,126.718Z" style="fill:white;"/>
        <path d="M163.22,130.663L162.181,130.663L162.69,128.267C162.752,127.979 162.84,127.489 162.181,127.489C161.722,127.489 161.299,127.801 161.171,128.4L160.69,130.663L159.652,130.663L160.783,125.338L161.822,125.338L161.42,127.23L161.435,127.23C161.638,126.904 162.143,126.614 162.707,126.614C163.479,126.614 163.985,127.066 163.799,127.934L163.22,130.663Z" style="fill:white;"/>
        <path d="M167.818,129.507C167.341,130.454 166.489,130.767 165.814,130.767C164.701,130.767 163.963,130.232 164.309,128.609C164.409,128.135 164.894,126.614 166.624,126.614C167.402,126.614 168.398,126.985 168.014,128.787L167.975,128.972L165.269,128.972C165.236,129.269 165.154,129.936 165.991,129.936C166.281,129.936 166.609,129.788 166.75,129.507L167.818,129.507Z" style="fill:white;"/>
        <path d="M170.212,126.718L169.373,130.663L168.336,130.663L169.175,126.718L170.212,126.718Z" style="fill:white;"/>
        <path d="M170.312,126.25L169.273,126.25L169.479,125.286L170.516,125.286L170.312,126.25Z" style="fill:white;"/>
        <path d="M172.369,126.718L173.013,126.718L172.857,127.46L172.211,127.46L171.756,129.602C171.708,129.831 171.697,129.921 172.118,129.921C172.185,129.921 172.26,129.914 172.337,129.907L172.169,130.693C172.005,130.701 171.84,130.708 171.678,130.708L171.543,130.708C170.647,130.708 170.555,130.366 170.665,129.855L171.174,127.46L170.639,127.46L170.797,126.718L171.332,126.718L171.558,125.651L172.596,125.651L172.369,126.718Z" style="fill:white;"/>
        <path d="M154.766,118.32C155.092,118.32 155.356,118.056 155.356,117.73C155.356,117.404 155.092,117.14 154.766,117.14C154.44,117.14 154.176,117.404 154.176,117.73C154.176,118.056 154.44,118.32 154.766,118.32Z" style="fill:white;"/>
        <path d="M157.176,118.32C157.502,118.32 157.766,118.056 157.766,117.73C157.766,117.404 157.502,117.14 157.176,117.14C156.85,117.14 156.587,117.404 156.587,117.73C156.587,118.056 156.85,118.32 157.176,118.32Z" style="fill:white;"/>
        <path d="M138.871,122.256C139.576,122.256 139.88,121.654 139.996,121.113C140.132,120.474 139.929,119.956 139.353,119.956C138.966,119.956 138.477,120.238 138.281,121.157C138.174,121.661 138.255,122.256 138.871,122.256Z" style="fill:white;"/>
        <path d="M144.383,120.742C144.459,120.104 144.093,119.911 143.759,119.911C143.27,119.911 142.943,120.222 142.773,120.742L144.383,120.742Z" style="fill:white;"/>
        <path d="M147.679,122.358C148.347,122.358 148.688,121.632 148.786,121.165C148.919,120.541 148.821,119.956 148.162,119.956C147.449,119.956 147.143,120.593 147.01,121.223C146.886,121.809 147.02,122.358 147.679,122.358Z" style="fill:white;"/>
        <path d="M165.387,120.742C165.464,120.104 165.097,119.911 164.763,119.911C164.274,119.911 163.947,120.222 163.779,120.742L165.387,120.742Z" style="fill:white;"/>
        <path d="M155.513,128.297C155.59,127.66 155.223,127.467 154.889,127.467C154.399,127.467 154.073,127.777 153.904,128.297L155.513,128.297Z" style="fill:white;"/>
        <path d="M167.051,128.297C167.128,127.66 166.76,127.467 166.427,127.467C165.937,127.467 165.613,127.777 165.442,128.297L167.051,128.297Z" style="fill:white;"/>
    </g>
</svg>
