<?xml version="1.0" encoding="UTF-8" standalone="no"?>
<!DOCTYPE svg PUBLIC "-//W3C//DTD SVG 1.1//EN" "http://www.w3.org/Graphics/SVG/1.1/DTD/svg11.dtd">
<svg width="100%" height="100%" viewBox="0 0 500 50" version="1.1" xmlns="http://www.w3.org/2000/svg" xmlns:xlink="http://www.w3.org/1999/xlink" xml:space="preserve" xmlns:serif="http://www.serif.com/" style="fill-rule:evenodd;clip-rule:evenodd;stroke-linejoin:round;stroke-miterlimit:2;">
    <g transform="matrix(1.24683,0,0,1.26631,5.68434e-14,-483.249)">
        <path d="M21.562,420.687L21.562,394.456L10.741,407.766L0,394.416L0,420.687L3.643,420.687L3.643,404.809L10.711,413.589L17.869,404.779L17.869,420.687L21.562,420.687ZM30.512,420.687L30.512,394.764L26.868,394.764L26.868,420.687L30.512,420.687ZM40.914,417.033C39.62,417.033 38.386,416.436 37.619,415.381L34.703,417.601C36.176,419.562 38.496,420.727 40.954,420.727L41.024,420.727C44.568,420.727 47.654,418.338 48.57,414.923C49.486,411.519 48.012,407.905 44.956,406.113L39.471,402.947C38.525,402.43 38.067,401.335 38.356,400.28C38.635,399.234 39.581,398.487 40.666,398.487L41.193,398.487C42.04,398.487 42.816,398.946 43.234,399.682L46.39,397.821C45.305,395.959 43.343,394.844 41.193,394.844L40.666,394.844C37.928,394.844 35.539,396.666 34.842,399.304C34.135,401.932 35.3,404.74 37.689,406.113L43.164,409.269C44.777,410.225 45.583,412.156 45.096,413.978C44.608,415.809 42.955,417.074 41.054,417.074L40.914,417.033ZM55.554,420.687L59.208,420.687L59.208,398.458L64.862,398.458L64.862,394.804L49.87,394.804L49.87,398.458L55.524,398.458L55.554,420.687ZM83.298,417.033L71.462,417.033L71.462,412.544L81.725,412.544L81.725,408.89L71.462,408.89L71.462,398.487L83.298,398.487L83.298,394.844L67.819,394.844L67.819,420.727L83.298,420.727L83.298,417.033ZM91.063,412.544L95.812,412.544L102.023,420.687L106.692,420.687L100.062,412.046C104.164,410.642 106.663,406.461 105.956,402.181C105.259,397.89 101.566,394.764 97.245,394.764L87.45,394.764L87.45,420.687L91.103,420.687L91.063,412.544ZM91.103,398.458L97.215,398.458C100.092,398.458 102.412,400.778 102.412,403.654C102.412,406.531 100.092,408.851 97.215,408.851L91.103,408.851L91.103,398.458ZM138.897,411.768C138.897,408.641 137.284,405.765 134.616,404.142C135.95,402.35 136.159,399.971 135.173,398C134.198,396.029 132.157,394.764 129.947,394.764L120.181,394.764L120.181,420.647L130.017,420.647C134.934,420.647 138.937,416.645 138.937,411.728L138.897,411.768ZM123.875,398.418L129.947,398.418C130.544,398.418 131.102,398.667 131.53,399.085C131.948,399.513 132.197,400.07 132.197,400.668C132.197,401.862 131.211,402.848 130.017,402.848L123.944,402.848L123.875,398.418ZM123.944,406.502L130.116,406.502C133.033,406.502 135.392,408.851 135.392,411.768C135.392,414.684 133.033,417.033 130.116,417.033L123.944,417.033L123.944,406.502ZM144.339,420.687L146.38,415.521L155.678,415.521L157.719,420.687L161.651,420.687L151.079,393.749L140.407,420.687L144.339,420.687ZM151.079,403.764L154.274,411.877L147.883,411.877L151.079,403.764ZM186.349,420.687L186.349,394.456L175.528,407.766L164.787,394.416L164.787,420.687L168.43,420.687L168.43,404.809L175.498,413.589L182.656,404.779L182.656,420.687L186.349,420.687ZM210.4,411.768C210.4,408.641 208.788,405.765 206.12,404.142C207.454,402.35 207.663,399.971 206.677,398C205.701,396.029 203.66,394.764 201.451,394.764L191.685,394.764L191.685,420.647L201.52,420.647C206.438,420.647 210.44,416.645 210.44,411.728L210.4,411.768ZM195.378,398.418L201.451,398.418C202.048,398.418 202.605,398.667 203.033,399.085C203.452,399.513 203.7,400.07 203.7,400.668C203.7,401.862 202.715,402.848 201.52,402.848L195.448,402.848L195.378,398.418ZM195.448,406.502L201.62,406.502C204.537,406.502 206.896,408.851 206.896,411.768C206.896,414.684 204.537,417.033 201.62,417.033L195.448,417.033L195.448,406.502ZM226.129,420.687C233.296,420.687 239.09,414.893 239.09,407.726C239.09,400.568 233.296,394.764 226.129,394.764C218.971,394.764 213.177,400.568 213.177,407.726C213.177,414.893 218.971,420.687 226.129,420.687ZM226.129,398.458C231.255,398.458 235.407,402.599 235.407,407.726C235.407,412.853 231.255,417.004 226.129,417.004C221.002,417.004 216.861,412.853 216.861,407.726C216.861,402.599 221.002,398.458 226.129,398.458ZM286.575,417.033C285.281,417.033 284.047,416.436 283.28,415.381L280.363,417.601C281.836,419.562 284.156,420.727 286.615,420.727L286.684,420.727C290.229,420.727 293.314,418.338 294.23,414.923C295.146,411.519 293.673,407.905 290.617,406.113L285.132,402.947C284.186,402.43 283.728,401.335 284.016,400.28C284.295,399.234 285.241,398.487 286.326,398.487L286.854,398.487C287.7,398.487 288.476,398.946 288.895,399.682L292.05,397.821C290.965,395.959 289.004,394.844 286.854,394.844L286.326,394.844C283.588,394.844 281.199,396.666 280.503,399.304C279.796,401.932 280.96,404.74 283.35,406.113L288.825,409.269C290.437,410.225 291.244,412.156 290.756,413.978C290.268,415.809 288.616,417.074 286.715,417.074L286.575,417.033ZM301.215,420.687L304.868,420.687L304.868,398.458L310.522,398.458L310.522,394.804L295.53,394.804L295.53,398.458L301.185,398.458L301.215,420.687ZM317.123,412.544L321.871,412.544L328.083,420.687L332.752,420.687L326.122,412.046C330.223,410.642 332.722,406.461 332.015,402.181C331.318,397.89 327.625,394.764 323.304,394.764L313.509,394.764L313.509,420.687L317.162,420.687L317.123,412.544ZM317.162,398.458L323.275,398.458C326.152,398.458 328.471,400.778 328.471,403.654C328.471,406.531 326.152,408.851 323.275,408.851L317.162,408.851L317.162,398.458ZM338.446,420.687L340.487,415.521L349.785,415.521L351.825,420.687L355.757,420.687L345.185,393.749L334.514,420.687L338.446,420.687ZM345.185,403.764L348.381,411.877L341.99,411.877L345.185,403.764ZM381.405,394.984L375.89,410.394L369.359,394.764L362.928,410.324L357.553,394.984L353.66,394.984L362.789,421.105L369.359,405.197L375.959,421.036L385.267,394.984L381.405,394.984ZM393.092,417.033C391.798,417.033 390.563,416.436 389.797,415.381L386.88,417.601C388.353,419.562 390.673,420.727 393.132,420.727L393.201,420.727C396.745,420.727 399.831,418.338 400.747,414.923C401.663,411.519 400.19,407.905 397.133,406.113L391.648,402.947C390.703,402.43 390.245,401.335 390.533,400.28C390.812,399.234 391.758,398.487 392.843,398.487L393.37,398.487C394.216,398.487 394.993,398.946 395.411,399.682L398.567,397.821C397.482,395.959 395.521,394.844 393.37,394.844L392.843,394.844C390.105,394.844 387.716,396.666 387.019,399.304C386.312,401.932 387.477,404.74 389.866,406.113L395.342,409.269C396.954,410.225 397.761,412.156 397.273,413.978C396.785,415.809 395.132,417.074 393.231,417.074L393.092,417.033Z" style="fill:white;fill-rule:nonzero;"/>
    </g>
    <g transform="matrix(1.24683,0,0,1.26631,5.68434e-14,-477.292)">
        <path d="M254.769,415.885C252.201,415.881 249.707,415.152 247.567,413.713C246.13,412.747 244.908,411.493 243.969,410.032C242.579,407.867 241.881,405.36 241.881,402.786C242.014,399.463 242.647,397.8 244.152,395.56C245.022,394.265 247.41,395.334 247.41,396.9C247.41,397.361 246.999,397.769 246.792,398.177C245.694,400.336 245.613,400.705 245.402,402.786C245.402,407.716 248.779,411.78 253.69,412.317C254.049,412.356 254.408,412.38 254.769,412.381C255.129,412.38 255.489,412.356 255.847,412.317C260.758,411.78 264.135,407.716 264.135,402.786C263.924,400.705 263.843,400.336 262.745,398.177C262.538,397.769 262.128,397.361 262.128,396.9C262.128,395.334 264.515,394.265 265.385,395.56C266.89,397.8 267.523,399.463 267.656,402.786C267.656,405.36 266.958,407.867 265.568,410.032C264.63,411.493 263.407,412.747 261.97,413.713C259.83,415.152 257.336,415.881 254.769,415.885" style="fill:white;"/>
    </g>
    <g transform="matrix(-1.22078,-0.257527,-0.253567,1.23984,746.052,-443.875)">
        <rect x="257.627" y="419.374" width="2.566" height="6.5" style="fill:white;"/>
    </g>
    <g transform="matrix(-1.22083,-0.257243,-0.253287,1.2399,751.435,-461.555)">
        <rect x="259.115" y="426.542" width="2.564" height="6.5" style="fill:white;"/>
    </g>
    <g transform="matrix(-1.22081,-0.257375,-0.253417,1.23988,740.32,-425.737)">
        <rect x="256.089" y="411.957" width="2.565" height="6.5" style="fill:white;"/>
    </g>
    <g transform="matrix(1.24683,0,0,1.26631,5.68434e-14,-478.082)">
        <path d="M254.783,401.73C253.225,401.206 251.72,400.767 249.955,401.088C249.215,401.222 248.486,401.447 247.801,401.765C247.664,401.827 247.387,402.043 247.192,402.12C247.139,402.509 247.104,402.904 247.104,403.313C247.104,407.829 250.36,411.235 254.679,411.235C258.976,411.235 262.217,407.829 262.217,403.313C262.217,402.757 262.167,402.219 262.071,401.702C260.595,402.457 258.875,402.778 257.246,402.479L257.748,400.061L255.237,399.54L254.783,401.73Z" style="fill:white;fill-rule:nonzero;"/>
    </g>
</svg>
