<svg xmlns="http://www.w3.org/2000/svg" xmlns:xlink="http://www.w3.org/1999/xlink" width="135" height="40" viewBox="0 0 135 40">
  <defs>
    <clipPath id="clip-path">
      <rect id="Rectangle_280" data-name="Rectangle 280" width="135" height="40" transform="translate(-22881 -16316)" fill="#fff"/>
    </clipPath>
  </defs>
  <g id="Mask_Group_24" data-name="Mask Group 24" transform="translate(22881 16316)" clip-path="url(#clip-path)">
    <g id="Layer_2" data-name="Layer 2" transform="translate(-22802.799 -16234.673)">
      <g id="Layer_1" data-name="Layer 1" transform="translate(-85.2 -85.205)">
        <path id="Path_739" data-name="Path 739" d="M467.024,41.805q.127,1.642.1,4.317-.032,3.737-.032,4.221.128,4.8.129,12.854a.9.9,0,1,1-1.8,0V60.2a9.014,9.014,0,0,1-2.852,2.448,8.725,8.725,0,0,1-3.366,1.063,5.711,5.711,0,0,1-4.446-1.414,6.833,6.833,0,0,1-2-5.156,9.523,9.523,0,0,1,1.611-5.67,9.061,9.061,0,0,1,4.188-3.48,6.174,6.174,0,0,1,4.9-.1,6,6,0,0,1,1.835,1.218q0-.354.032-3.028.032-2.578-.1-4.158a.853.853,0,0,1,.21-.645.868.868,0,0,1,.612-.319.91.91,0,0,1,.983.84Zm-1.676,10.857a4.867,4.867,0,0,0-2.61-3.093,4.455,4.455,0,0,0-3.511.1,7.332,7.332,0,0,0-3.351,2.819,7.954,7.954,0,0,0-1.321,4.657,5.017,5.017,0,0,0,1.414,3.834,3.988,3.988,0,0,0,3.061.934,6.814,6.814,0,0,0,3.737-1.58,7.455,7.455,0,0,0,2.481-3.641,1.423,1.423,0,0,1,.129-.258Q465.38,54.438,465.348,52.662Z" transform="translate(-408.012 -30.47)" fill="#333"/>
        <path id="Path_740" data-name="Path 740" d="M632.117,17.852a.877.877,0,0,1,.258.645.9.9,0,1,1-1.8,0,.915.915,0,0,1,1.547-.645Zm4.188,1.063a9.119,9.119,0,0,1,1.256,1.063,1.976,1.976,0,0,1,.323,2.449,1.348,1.348,0,0,1-1.031.773,1.836,1.836,0,0,1-1.03-.225c-.108-.043-.258-.107-.452-.193a3.649,3.649,0,0,1-.357-.194.869.869,0,0,0-.451-.1,1.424,1.424,0,0,0-.451.193q-.484.258-.709.354a1.48,1.48,0,0,1-.934.13,1.242,1.242,0,0,1-.87-.709q-.741-1.385.741-2.932a5.262,5.262,0,0,1,1.288-.951,2.906,2.906,0,0,1,1.324-.368,1.233,1.233,0,0,1,.644.223,2.6,2.6,0,0,1,.548.387Zm-2.123-2.7a.878.878,0,0,1,.258.645.9.9,0,1,1-1.8,0,.915.915,0,0,1,1.546-.645Zm1.482,8.827q0,1.032.1,7.635t-.033,7.635a.8.8,0,0,1-.273.628.963.963,0,0,1-.66.242.8.8,0,0,1-.628-.274.961.961,0,0,1-.242-.66q.128-1.064.032-7.6t-.1-7.6a.9.9,0,1,1,1.8,0Zm1.1-8.67a.876.876,0,0,1,.258.644.9.9,0,1,1-1.8,0,.915.915,0,0,1,1.546-.644Zm1.965,1.482a.877.877,0,0,1,.258.645.9.9,0,1,1-1.8,0,.915.915,0,0,1,1.546-.645Z" transform="translate(-571.044 -7.547)" fill="#333"/>
        <path id="Path_741" data-name="Path 741" d="M762.107,113.111q.032.582.1,2.481.1,1.836.194,2.932.194,2.126.274,3.16t.048,2.994a19.676,19.676,0,0,1-.322,3.415q-1.128,5.83-6.314,7.184a8.5,8.5,0,0,1-4.123.016,11.7,11.7,0,0,1-3.93-1.691.869.869,0,0,1-.371-.564.832.832,0,0,1,.129-.677.907.907,0,0,1,.582-.387.848.848,0,0,1,.693.145,10.184,10.184,0,0,0,3.254,1.386,7,7,0,0,0,3.318.032q4.09-1.063,4.99-5.8a14.071,14.071,0,0,0,.258-2,9.326,9.326,0,0,1-2.947,2.557,8.147,8.147,0,0,1-3.528,1.047,6.241,6.241,0,0,1-4.8-1.756,7.816,7.816,0,0,1-2.127-5.525,9.548,9.548,0,0,1,3.125-7.442,7.754,7.754,0,0,1,3.544-1.9,7.543,7.543,0,0,1,4.252.358,7.3,7.3,0,0,1,1.965,1.1q-.032-.514-.064-.934a.821.821,0,0,1,.225-.66.95.95,0,0,1,.628-.306.806.806,0,0,1,.645.225A.94.94,0,0,1,762.107,113.111Zm-1.58,5.026a6.282,6.282,0,0,0-.9-2.158,4.273,4.273,0,0,0-1.868-1.224,5.766,5.766,0,0,0-3.222-.274,6.088,6.088,0,0,0-2.739,1.466A7.962,7.962,0,0,0,749.283,122a6.032,6.032,0,0,0,1.563,4.285,4.532,4.532,0,0,0,3.464,1.257,6.907,6.907,0,0,0,3.882-1.6,7.317,7.317,0,0,0,2.528-3.882.743.743,0,0,1,.129-.258q-.065-.966-.257-3.092a3.3,3.3,0,0,1-.032-.483.132.132,0,0,1-.031-.1Z" transform="translate(-678.225 -95.848)" fill="#333"/>
        <path id="Path_742" data-name="Path 742" d="M930.476,114.839a11.261,11.261,0,0,1-.21,1.256c-.1.431-.209.892-.338,1.386l-.322,1.031q-.033.194-.452,2.094l-.645,2.77q-.226.871-.692,2.448t-.951,2.835q-2.578,6.6-6.894,8.087a4.63,4.63,0,0,1-1.164.274,9.621,9.621,0,0,1-1.047.083q-.371,0-1.159-.048t-.887-.049a.8.8,0,0,1-.628-.274.961.961,0,0,1-.242-.66.8.8,0,0,1,.274-.628.961.961,0,0,1,.66-.242q.259,0,.966.048t1.015.048q.305,0,.79-.048a3.467,3.467,0,0,0,.837-.177q2.994-1.063,5.057-5.445a.838.838,0,0,1-.289-.193,22.328,22.328,0,0,1-1.961-2.61q-.966-1.481-1.611-2.69t-1.45-3.141q-.806-1.934-1.16-2.867l-1.1-2.932a.909.909,0,0,1,.016-.693.831.831,0,0,1,.5-.467.915.915,0,0,1,.693.017.832.832,0,0,1,.467.5q.869,2.385,1.369,3.64t1.385,3.287a28.471,28.471,0,0,0,1.852,3.592,21.5,21.5,0,0,0,2.062,2.819q.452-1.192.886-2.69t.644-2.336q.21-.837.628-2.674t.484-2.062a11.372,11.372,0,0,1,.306-1.208q.209-.694.322-1.208t.177-1.064a.806.806,0,0,1,.338-.612.966.966,0,0,1,.676-.193.8.8,0,0,1,.6.338A.946.946,0,0,1,930.476,114.839Z" transform="translate(-831.678 -97.285)" fill="#333"/>
        <path id="Path_743" data-name="Path 743" d="M1114.452,118.618a15.145,15.145,0,0,0-.1,1.8,7.3,7.3,0,0,1,4.833-2.738,7.086,7.086,0,0,1,4.735.966,8.543,8.543,0,0,1,3.318,9.89,8.369,8.369,0,0,1-3.7,4.092,9.48,9.48,0,0,1-4.463,1.227,9.12,9.12,0,0,1-4.657-1.159q.064,5.476.065,6.926a.9.9,0,0,1-1.8,0q0-.87-.064-7.619t.032-7.619q0-.611-.064-2.9a21.68,21.68,0,0,1,.064-3.06.854.854,0,0,1,.323-.6.878.878,0,0,1,.66-.21.868.868,0,0,1,.612.322A.9.9,0,0,1,1114.452,118.618Zm-.032,11.856a6.7,6.7,0,0,0,4.075,1.562,7.285,7.285,0,0,0,4.172-.982,6.682,6.682,0,0,0,2.142-1.852,6.517,6.517,0,0,0-1.819-9,5.358,5.358,0,0,0-3.559-.741,5.621,5.621,0,0,0-3.286,1.659,5.977,5.977,0,0,0-1.663,3.659.582.582,0,0,0-.032.194Q1114.387,127.316,1114.42,130.474Z" transform="translate(-1012.949 -100.742)" fill="#333"/>
        <path id="Path_744" data-name="Path 744" d="M1306.619,122.17a6.192,6.192,0,0,0,3.93,6.186,7.364,7.364,0,0,0,2.981.451,4.435,4.435,0,0,0,2.561-1.015,4.3,4.3,0,0,0,1.482-2.465.8.8,0,0,1,.387-.582.915.915,0,0,1,.693-.112.874.874,0,0,1,.66,1.081,6.334,6.334,0,0,1-1.414,2.835,5.64,5.64,0,0,1-2.354,1.628,7.851,7.851,0,0,1-2.8.435,8.151,8.151,0,0,1-2.835-.582,7.789,7.789,0,0,1-4.994-6.314,10.263,10.263,0,0,1,.709-5.38,6.718,6.718,0,0,1,1.739-2.675,7.108,7.108,0,0,1,2.625-1.611,6.631,6.631,0,0,1,3.061-.258,6.308,6.308,0,0,1,3.011,1.289,5.83,5.83,0,0,1,1.164,1.176,9.864,9.864,0,0,1,1.031,1.627q1.223,2.61-.516,3.992a2.371,2.371,0,0,1-1.1.416,6.6,6.6,0,0,1-1.321.161q-1.353.1-3.416.032Q1308.745,122.427,1306.619,122.17Zm.258-1.771q2.062.226,5.058.289a30.847,30.847,0,0,0,3.254-.032,6.553,6.553,0,0,0,1.128-.128l.322-.065q.582-.483-.032-1.8a7.075,7.075,0,0,0-1.643-2.162,5.124,5.124,0,0,0-2.912-.963,4.862,4.862,0,0,0-2.835.934,5.161,5.161,0,0,0-1.913,2.513A11.761,11.761,0,0,0,1306.876,120.4Z" transform="translate(-1189.201 -97.174)" fill="#333"/>
        <path id="Path_745" data-name="Path 745" d="M1485.2,48.817q1.224.032,2.641,0,.194-3.479.483-6.25a.81.81,0,0,1,.339-.612.968.968,0,0,1,.677-.193.8.8,0,0,1,.6.338.939.939,0,0,1,.193.66q-.319,2.707-.486,5.993.773-.032,3.093-.194a.825.825,0,0,1,.66.225.958.958,0,0,1,.307.629.8.8,0,0,1-.226.645.938.938,0,0,1-.612.306q-2.318.161-3.318.193-.065,1.419-.064,2.706a54.728,54.728,0,0,0,.225,5.767,6.392,6.392,0,0,0,.934,3.16q.935,1.03,2.932.451a.92.92,0,0,1,.693.083.822.822,0,0,1,.435.531.92.92,0,0,1-.083.693.832.832,0,0,1-.531.435,6.955,6.955,0,0,1-1.58.258,4.856,4.856,0,0,1-1.675-.258,3.646,3.646,0,0,1-1.547-.966,8.1,8.1,0,0,1-1.353-4.158,52.8,52.8,0,0,1-.258-5.992q0-1.256.065-2.641-1.419.032-2.61,0a.8.8,0,0,1-.628-.274.962.962,0,0,1-.242-.66.8.8,0,0,1,.274-.628A.965.965,0,0,1,1485.2,48.817Z" transform="translate(-1353.733 -31.199)" fill="#333"/>
        <g id="Group_1956" data-name="Group 1956" transform="translate(44.738 8.413)" opacity="0.35">
          <path id="Path_746" data-name="Path 746" d="M467.024,41.805q.127,1.642.1,4.317-.032,3.737-.032,4.221.128,4.8.129,12.854a.9.9,0,1,1-1.8,0V60.2a9.014,9.014,0,0,1-2.852,2.448,8.725,8.725,0,0,1-3.366,1.063,5.711,5.711,0,0,1-4.446-1.414,6.833,6.833,0,0,1-2-5.156,9.523,9.523,0,0,1,1.611-5.67,9.061,9.061,0,0,1,4.188-3.48,6.174,6.174,0,0,1,4.9-.1,6,6,0,0,1,1.835,1.218q0-.354.032-3.028.032-2.578-.1-4.158a.853.853,0,0,1,.21-.645.868.868,0,0,1,.612-.319.91.91,0,0,1,.983.84Zm-1.676,10.857a4.867,4.867,0,0,0-2.61-3.093,4.455,4.455,0,0,0-3.511.1,7.332,7.332,0,0,0-3.351,2.819,7.954,7.954,0,0,0-1.321,4.657,5.017,5.017,0,0,0,1.414,3.834,3.988,3.988,0,0,0,3.061.934,6.814,6.814,0,0,0,3.737-1.58,7.455,7.455,0,0,0,2.481-3.641,1.423,1.423,0,0,1,.129-.258Q465.38,54.438,465.348,52.662Z" transform="translate(-452.75 -38.883)" fill="#333"/>
          <path id="Path_747" data-name="Path 747" d="M632.117,17.852a.877.877,0,0,1,.258.645.9.9,0,1,1-1.8,0,.915.915,0,0,1,1.547-.645Zm4.188,1.063a9.119,9.119,0,0,1,1.256,1.063,1.976,1.976,0,0,1,.323,2.449,1.348,1.348,0,0,1-1.031.773,1.836,1.836,0,0,1-1.03-.225c-.108-.043-.258-.107-.452-.193a3.649,3.649,0,0,1-.357-.194.869.869,0,0,0-.451-.1,1.424,1.424,0,0,0-.451.193q-.484.258-.709.354a1.48,1.48,0,0,1-.934.13,1.242,1.242,0,0,1-.87-.709q-.741-1.385.741-2.932a5.262,5.262,0,0,1,1.288-.951,2.906,2.906,0,0,1,1.324-.368,1.233,1.233,0,0,1,.644.223,2.6,2.6,0,0,1,.548.387Zm-2.123-2.7a.878.878,0,0,1,.258.645.9.9,0,1,1-1.8,0,.915.915,0,0,1,1.546-.645Zm1.482,8.827q0,1.032.1,7.635t-.033,7.635a.8.8,0,0,1-.273.628.963.963,0,0,1-.66.242.8.8,0,0,1-.628-.274.961.961,0,0,1-.242-.66q.128-1.064.032-7.6t-.1-7.6a.9.9,0,1,1,1.8,0Zm1.1-8.67a.876.876,0,0,1,.258.644.9.9,0,1,1-1.8,0,.915.915,0,0,1,1.546-.644Zm1.965,1.482a.877.877,0,0,1,.258.645.9.9,0,1,1-1.8,0,.915.915,0,0,1,1.546-.645Z" transform="translate(-615.782 -15.96)" fill="#333"/>
          <path id="Path_748" data-name="Path 748" d="M762.107,113.111q.032.582.1,2.481.1,1.836.194,2.932.194,2.126.274,3.16t.048,2.994a19.676,19.676,0,0,1-.322,3.415q-1.128,5.83-6.314,7.184a8.5,8.5,0,0,1-4.123.016,11.7,11.7,0,0,1-3.93-1.691.869.869,0,0,1-.371-.564.832.832,0,0,1,.129-.677.907.907,0,0,1,.582-.387.848.848,0,0,1,.693.145,10.184,10.184,0,0,0,3.254,1.386,7,7,0,0,0,3.318.032q4.09-1.063,4.99-5.8a14.071,14.071,0,0,0,.258-2,9.326,9.326,0,0,1-2.947,2.557,8.147,8.147,0,0,1-3.528,1.047,6.241,6.241,0,0,1-4.8-1.756,7.816,7.816,0,0,1-2.127-5.525,9.548,9.548,0,0,1,3.125-7.442,7.754,7.754,0,0,1,3.544-1.9,7.543,7.543,0,0,1,4.252.358,7.3,7.3,0,0,1,1.965,1.1q-.032-.514-.064-.934a.821.821,0,0,1,.225-.66.95.95,0,0,1,.628-.306.806.806,0,0,1,.645.225A.94.94,0,0,1,762.107,113.111Zm-1.58,5.026a6.282,6.282,0,0,0-.9-2.158,4.273,4.273,0,0,0-1.868-1.224,5.766,5.766,0,0,0-3.222-.274,6.088,6.088,0,0,0-2.739,1.466A7.962,7.962,0,0,0,749.283,122a6.032,6.032,0,0,0,1.563,4.285,4.532,4.532,0,0,0,3.464,1.257,6.907,6.907,0,0,0,3.882-1.6,7.317,7.317,0,0,0,2.528-3.882.743.743,0,0,1,.129-.258q-.065-.966-.257-3.092a3.3,3.3,0,0,1-.032-.483.132.132,0,0,1-.031-.1Z" transform="translate(-722.963 -104.261)" fill="#333"/>
          <path id="Path_749" data-name="Path 749" d="M930.476,114.839a11.261,11.261,0,0,1-.21,1.256c-.1.431-.209.892-.338,1.386l-.322,1.031q-.033.194-.452,2.094l-.645,2.77q-.226.871-.692,2.448t-.951,2.835q-2.578,6.6-6.894,8.087a4.63,4.63,0,0,1-1.164.274,9.621,9.621,0,0,1-1.047.083q-.371,0-1.159-.048t-.887-.049a.8.8,0,0,1-.628-.274.961.961,0,0,1-.242-.66.8.8,0,0,1,.274-.628.961.961,0,0,1,.66-.242q.259,0,.966.048t1.015.048q.305,0,.79-.048a3.467,3.467,0,0,0,.837-.177q2.994-1.063,5.057-5.445a.838.838,0,0,1-.289-.193,22.328,22.328,0,0,1-1.961-2.61q-.966-1.481-1.611-2.69t-1.45-3.141q-.806-1.934-1.16-2.867l-1.1-2.932a.909.909,0,0,1,.016-.693.831.831,0,0,1,.5-.467.915.915,0,0,1,.693.017.832.832,0,0,1,.467.5q.869,2.385,1.369,3.64t1.385,3.287a28.471,28.471,0,0,0,1.852,3.592,21.5,21.5,0,0,0,2.062,2.819q.452-1.192.886-2.69t.644-2.336q.21-.837.628-2.674t.484-2.062a11.372,11.372,0,0,1,.306-1.208q.209-.694.322-1.208t.177-1.064a.806.806,0,0,1,.338-.612.966.966,0,0,1,.676-.193.8.8,0,0,1,.6.338A.946.946,0,0,1,930.476,114.839Z" transform="translate(-876.416 -105.698)" fill="#333"/>
          <path id="Path_750" data-name="Path 750" d="M1114.452,118.618a15.145,15.145,0,0,0-.1,1.8,7.3,7.3,0,0,1,4.833-2.738,7.086,7.086,0,0,1,4.735.966,8.543,8.543,0,0,1,3.318,9.89,8.369,8.369,0,0,1-3.7,4.092,9.48,9.48,0,0,1-4.463,1.227,9.12,9.12,0,0,1-4.657-1.159q.064,5.476.065,6.926a.9.9,0,0,1-1.8,0q0-.87-.064-7.619t.032-7.619q0-.611-.064-2.9a21.68,21.68,0,0,1,.064-3.06.854.854,0,0,1,.323-.6.878.878,0,0,1,.66-.21.868.868,0,0,1,.612.322A.9.9,0,0,1,1114.452,118.618Zm-.032,11.856a6.7,6.7,0,0,0,4.075,1.562,7.285,7.285,0,0,0,4.172-.982,6.682,6.682,0,0,0,2.142-1.852,6.517,6.517,0,0,0-1.819-9,5.358,5.358,0,0,0-3.559-.741,5.621,5.621,0,0,0-3.286,1.659,5.977,5.977,0,0,0-1.663,3.659.582.582,0,0,0-.032.194Q1114.387,127.316,1114.42,130.474Z" transform="translate(-1057.687 -109.155)" fill="#333"/>
          <path id="Path_751" data-name="Path 751" d="M1306.619,122.17a6.192,6.192,0,0,0,3.93,6.186,7.364,7.364,0,0,0,2.981.451,4.435,4.435,0,0,0,2.561-1.015,4.3,4.3,0,0,0,1.482-2.465.8.8,0,0,1,.387-.582.915.915,0,0,1,.693-.112.874.874,0,0,1,.66,1.081,6.334,6.334,0,0,1-1.414,2.835,5.64,5.64,0,0,1-2.354,1.628,7.851,7.851,0,0,1-2.8.435,8.151,8.151,0,0,1-2.835-.582,7.789,7.789,0,0,1-4.994-6.314,10.263,10.263,0,0,1,.709-5.38,6.718,6.718,0,0,1,1.739-2.675,7.108,7.108,0,0,1,2.625-1.611,6.631,6.631,0,0,1,3.061-.258,6.308,6.308,0,0,1,3.011,1.289,5.83,5.83,0,0,1,1.164,1.176,9.864,9.864,0,0,1,1.031,1.627q1.223,2.61-.516,3.992a2.371,2.371,0,0,1-1.1.416,6.6,6.6,0,0,1-1.321.161q-1.353.1-3.416.032Q1308.745,122.427,1306.619,122.17Zm.258-1.771q2.062.226,5.058.289a30.847,30.847,0,0,0,3.254-.032,6.553,6.553,0,0,0,1.128-.128l.322-.065q.582-.483-.032-1.8a7.075,7.075,0,0,0-1.643-2.162,5.124,5.124,0,0,0-2.912-.963,4.862,4.862,0,0,0-2.835.934,5.161,5.161,0,0,0-1.913,2.513A11.761,11.761,0,0,0,1306.876,120.4Z" transform="translate(-1233.939 -105.588)" fill="#333"/>
          <path id="Path_752" data-name="Path 752" d="M1485.2,48.817q1.224.032,2.641,0,.194-3.479.483-6.25a.81.81,0,0,1,.339-.612.968.968,0,0,1,.677-.193.8.8,0,0,1,.6.338.939.939,0,0,1,.193.66q-.319,2.707-.486,5.993.773-.032,3.093-.194a.825.825,0,0,1,.66.225.958.958,0,0,1,.307.629.8.8,0,0,1-.226.645.938.938,0,0,1-.612.306q-2.318.161-3.318.193-.065,1.419-.064,2.706a54.728,54.728,0,0,0,.225,5.767,6.392,6.392,0,0,0,.934,3.16q.935,1.03,2.932.451a.92.92,0,0,1,.693.083.822.822,0,0,1,.435.531.92.92,0,0,1-.083.693.832.832,0,0,1-.531.435,6.955,6.955,0,0,1-1.58.258,4.856,4.856,0,0,1-1.675-.258,3.646,3.646,0,0,1-1.547-.966,8.1,8.1,0,0,1-1.353-4.158,52.8,52.8,0,0,1-.258-5.992q0-1.256.065-2.641-1.419.032-2.61,0a.8.8,0,0,1-.628-.274.962.962,0,0,1-.242-.66.8.8,0,0,1,.274-.628A.965.965,0,0,1,1485.2,48.817Z" transform="translate(-1398.471 -39.612)" fill="#333"/>
        </g>
        <circle id="Ellipse_51" data-name="Ellipse 51" cx="17.107" cy="17.107" r="17.107" transform="translate(0 24.193) rotate(-45)" fill="#4880b7"/>
        <path id="Path_753" data-name="Path 753" d="M273.883,88.86a1.75,1.75,0,0,1-.066-.509c.007-.145-.093-.265-.1-.409a.5.5,0,0,0-.056-.242c-.061-.091-.033-.205-.077-.3-.078-.13-.083-.286-.157-.416a6.328,6.328,0,0,0-.333-.729c-.092-.213-.238-.4-.349-.6a5.753,5.753,0,0,0-.467-.589,3.807,3.807,0,0,0-1.089-.837c-.092-.053-.205-.052-.3-.106a1.538,1.538,0,0,0-.388-.092.843.843,0,0,0-.566-.007,2.421,2.421,0,0,0-.378.1,2.739,2.739,0,0,0-1.088.877c-.083.094-.2.193-.176.333-.115-.016-.1.127-.156.189a2.429,2.429,0,0,0-.22.521,2.017,2.017,0,0,1-.083.324c-.07.131-.027.282-.057.416a2.526,2.526,0,0,0-.087.748,2.087,2.087,0,0,0,.039.6,1.664,1.664,0,0,1,.065.478c-.005.123.083.225.091.345a.724.724,0,0,0,.054.282,1.291,1.291,0,0,1,.073.3c.111.192.119.425.232.616.057.083.052.185.1.268.109.179.194.371.3.552l.056.021c0,.015,0,.044.006.058a8.568,8.568,0,0,0,.516.738,3.846,3.846,0,0,0,1.11.888,2.8,2.8,0,0,0,.5.215c.132.036.272.02.406.047a2.274,2.274,0,0,0,.582-.026,1.138,1.138,0,0,0,.354-.113.79.79,0,0,0,.321-.21c.1-.02.166-.1.244-.166a3.012,3.012,0,0,0,.369-.407,2.876,2.876,0,0,0,.526-.971.449.449,0,0,0,.083-.289c0-.091.1-.146.092-.238a1.5,1.5,0,0,1,.062-.516A8.247,8.247,0,0,0,273.883,88.86Z" transform="translate(-238.346 -69.91)" fill="#fff"/>
        <path id="Path_754" data-name="Path 754" d="M181.681,48.062a.986.986,0,0,0-.072-.235,1.583,1.583,0,0,1-.037-.406.727.727,0,0,1-.1-.306c.014-.127-.083-.225-.1-.343-.013-.141-.1-.262-.117-.4a.868.868,0,0,1-.106-.3.25.25,0,0,1-.077-.124,3.235,3.235,0,0,0-.256-.5c-.061-.07-.067-.166-.13-.24a2.4,2.4,0,0,1-.166-.278,5.733,5.733,0,0,0-.731-.832,4.272,4.272,0,0,0-.738-.516.352.352,0,0,0-.141-.042l-.2-.012.095-.072a1.106,1.106,0,0,1-.369-.048,1.171,1.171,0,0,0-.577-.073,1.465,1.465,0,0,0-.427.116,1.365,1.365,0,0,0-.494.261c-.1.083-.232.132-.292.249l-.067.034-.031.07-.071.032c-.007.017-.024.051-.032.067-.061.025-.124.059-.083.135l-.022.011a1.059,1.059,0,0,0-.166.22c-.106.027-.126.141-.166.227-.046.107-.11.206-.158.314a1.43,1.43,0,0,1-.1.309.784.784,0,0,0-.1.365,1.58,1.58,0,0,0-.109.551c0,.16-.031.316-.032.475-.007.307.032.612.047.915,0,.153.07.294.083.445a3.145,3.145,0,0,0,.174.748,6.047,6.047,0,0,0,1.419,2.455.862.862,0,0,0,.218.193c.145.083.249.23.393.313a2.19,2.19,0,0,0,.513.269c.136.107.323.063.468.15a.4.4,0,0,0,.233.012,1.935,1.935,0,0,0,.55-.022l.034-.062.18-.018a.547.547,0,0,1,0-.091,1.292,1.292,0,0,0,.282-.037.166.166,0,0,1,.065-.1,1.537,1.537,0,0,1,.249-.195l.03-.067c.074.007.1-.064.123-.119l.116-.048a1.465,1.465,0,0,0,.249-.37l.1-.033a.544.544,0,0,1,.07-.21c.05-.075.141-.127.147-.225.132-.065.09-.23.18-.325.064-.083.007-.212.078-.3s.047-.214.059-.324.094-.219.1-.338C181.675,48.947,181.67,48.5,181.681,48.062Z" transform="translate(-153.829 -32.647)" fill="#fff"/>
        <path id="Path_755" data-name="Path 755" d="M88.354,94.332a1.091,1.091,0,0,0-.11-.649.224.224,0,0,0,0-.057.614.614,0,0,0-.1-.482v-.027a1.5,1.5,0,0,0-.006-.273l-.083-.007a.456.456,0,0,0-.083-.249,1.29,1.29,0,0,0-.132-.394c.047-.033,0-.137-.054-.1-.014-.053-.027-.106-.046-.158a.25.25,0,0,0-.052-.194,7.984,7.984,0,0,0-.787-1.247,5.676,5.676,0,0,0-.442-.508,4.887,4.887,0,0,0-1.913-1.242,1.558,1.558,0,0,1-.339-.1,4.634,4.634,0,0,0-.966,0,3.906,3.906,0,0,0-.461.178,2.332,2.332,0,0,0-.579.483c-.062.067-.146.125-.166.218v.07L82,89.648c-.056.048-.1.1-.155.156l-.02.083a.735.735,0,0,0-.024.209l-.083.016a.832.832,0,0,1-.083.237l-.021-.026c0,.146-.1.262-.1.408-.02.4-.011.794-.007,1.191a.551.551,0,0,0,.108.377.724.724,0,0,0,.083.406.685.685,0,0,0,.126.362,3.6,3.6,0,0,0,.121.406l.061.037c.007.059.017.119.031.177l.071.029c.006.06.014.119.026.179l.077.026c0,.049.007.1.011.148l.083.06.017.058c-.017.075.044.12.083.175a3.607,3.607,0,0,0,.442.683,4.829,4.829,0,0,0,.931.969v.061a.822.822,0,0,1,.333.213c.067.034.141.057.18.126a1.164,1.164,0,0,1,.274.142l.031.067c.061,0,.121.011.182.018a.449.449,0,0,0,.019.083.827.827,0,0,1,.27.037l.035.066a.748.748,0,0,1,.4.1,4.568,4.568,0,0,1,.5.031c.156-.013.312-.024.468-.028a2.674,2.674,0,0,1,.352-.1h.041l.035-.067c.255-.052.4-.28.582-.441A.684.684,0,0,1,87.7,96.1c.01-.033.02-.067.031-.1l.072-.031a1.248,1.248,0,0,1,.036-.166l.058-.022.03,0a.256.256,0,0,1,.005-.062l.017-.033a.094.094,0,0,1,.009-.022l.052-.038L88,95.6a.215.215,0,0,0,.045-.146c.054.032.1-.066.061-.1.052-.021.059-.054.021-.1,0-.026.011-.077.014-.1l.087-.006a2.365,2.365,0,0,0,0-.277c0-.022.007-.067.008-.089A.565.565,0,0,0,88.354,94.332Z" transform="translate(-67.637 -74.161)" fill="#fff"/>
        <path id="Path_756" data-name="Path 756" d="M67.054,187.342a.47.47,0,0,0-.094-.275.676.676,0,0,0-.033-.368.673.673,0,0,1-.063-.241c0-.1-.089-.172-.091-.273a.409.409,0,0,0-.083-.228c-.054-.215-.175-.4-.24-.616a11.188,11.188,0,0,0-.793-1.242,5.105,5.105,0,0,0-2.252-1.723c-.1-.083-.236-.047-.348-.1a.7.7,0,0,0-.166-.059,4.523,4.523,0,0,0-.808,0,2.132,2.132,0,0,0-.867.416,5.684,5.684,0,0,0-.5.516,2.314,2.314,0,0,0-.333.623c-.077.119-.041.27-.109.393a1.128,1.128,0,0,0-.054.35,3.629,3.629,0,0,0-.021.754,4.508,4.508,0,0,0,.1.686,4.078,4.078,0,0,0,.238.814,6.672,6.672,0,0,0,1.912,2.809,5.512,5.512,0,0,0,.551.412l.1-.007c.039.041.073.095.132.11.111.028.2.1.306.139a.168.168,0,0,1,.083.071l.171.04.035.064a.875.875,0,0,1,.388.1,4.059,4.059,0,0,0,.852.035.575.575,0,0,0,.249-.057c.1-.072.238-.032.327-.117.093-.057.214-.076.265-.185h.019c.048-.067.129-.11.151-.194l.153-.014c.012-.056.027-.111.04-.166l.065-.028h.1c.031-.1.121-.16.166-.25.062-.119.141-.229.194-.353.065-.1.057-.22.121-.316a.541.541,0,0,0,.05-.23c.009-.107.083-.2.083-.307C67.065,187.995,67.07,187.666,67.054,187.342Z" transform="translate(-48.092 -159.964)" fill="#fff"/>
        <path id="Path_757" data-name="Path 757" d="M154.268,179.151c-.092-.111-.07-.26-.116-.388-.072-.135-.079-.29-.141-.428a2.054,2.054,0,0,0-.191-.5c-.064-.109-.059-.243-.122-.353a1.257,1.257,0,0,0-.175-.268,2.811,2.811,0,0,0-.275-.475c-.07-.09-.176-.141-.241-.235a3.5,3.5,0,0,0-.345-.365c-.062-.07-.16-.083-.227-.148a1.96,1.96,0,0,0-.49-.324.5.5,0,0,0-.285-.123c-.089-.011-.157-.083-.249-.083a.426.426,0,0,0-.307-.127.565.565,0,0,1-.3-.083c-.531-.029-1.065,0-1.6-.015-.052-.123-.2-.1-.31-.11-.151.008-.262-.146-.416-.1a1.574,1.574,0,0,1-.25-.032,1.354,1.354,0,0,0-.227-.1l-.038-.063-.166-.038-.037-.062c-.146-.025-.254-.153-.406-.141,0-.019-.008-.058-.011-.077a2.425,2.425,0,0,0-.388-.237,1.123,1.123,0,0,0-.191-.18c-.166-.114-.3-.271-.463-.388-.228-.257-.473-.5-.717-.74a.852.852,0,0,1-.306-.236,1.133,1.133,0,0,1-.325-.151.13.13,0,0,0-.135-.075.834.834,0,0,0-.012-.091,1.694,1.694,0,0,1-.358-.106.424.424,0,0,0-.308-.131.727.727,0,0,1-.278-.095,13.827,13.827,0,0,0-1.414,0c-.083.028-.147.106-.243.093a.582.582,0,0,0-.377.137h.035l-.021.074c-.106.009-.257-.022-.309.1l-.166.039-.038.06a.656.656,0,0,0-.259.14c-.095-.063-.152.043-.218.091a4.72,4.72,0,0,0-1.058,1.048,4.4,4.4,0,0,0-.586,1.072,2.52,2.52,0,0,0-.13.551,1.372,1.372,0,0,0-.083.479c-.006.486,0,.974,0,1.46a1.573,1.573,0,0,1-.028.4,6.332,6.332,0,0,0-.093.651c-.068.146-.052.313-.114.46s-.067.3-.136.438a6.683,6.683,0,0,1-.531,1.144c-.033.059-.09.115-.078.189l-.049.021c-.1.152-.245.274-.355.423a3.747,3.747,0,0,0-.734,1.228c-.02.146-.115.27-.124.416a5.316,5.316,0,0,0-.1,1.493,4.491,4.491,0,0,0,.665,1.83c.108.192.249.362.364.551.1.124.218.235.312.367a4.215,4.215,0,0,0,1.571,1.1,1.747,1.747,0,0,0,.529.125,1.165,1.165,0,0,0,.733.079.463.463,0,0,1,.008-.166.764.764,0,0,1,.166-.062c-.008-.066-.023-.161-.106-.162a1.618,1.618,0,0,1-.416-.138c-.166-.057-.305-.157-.465-.22a1.188,1.188,0,0,1,0-.134c.119-.1.083-.274.153-.4s.036-.28.1-.407a.988.988,0,0,0,.056-.487.712.712,0,0,0-.083-.278,1.4,1.4,0,0,0-.235-.416,1.551,1.551,0,0,1-.308-.2,3.686,3.686,0,0,1-.348-.5,5.7,5.7,0,0,1-.444-.887,1.112,1.112,0,0,0-.1-.373c-.024-.351,0-.7-.013-1.054l0-.028c.106-.077.108-.21.126-.327a2.453,2.453,0,0,1,.273-.5,2.3,2.3,0,0,1,.278-.374.953.953,0,0,1,.307-.166l.594-.236c.823-.328,2.731-.671,3.115.5a3.249,3.249,0,0,0,.347.7,1.715,1.715,0,0,1,.166.949.651.651,0,0,0,.215.39c.171.184.313.391.476.582.056.077.156.166.113.271a.78.78,0,0,0-.231.249c-.058.016-.1.045-.066.111l-.024.015c0,.025.011.075.014.1a1.3,1.3,0,0,1-.037.452c-.032.1.046.177.1.249.029.116-.087.188-.148.269a.268.268,0,0,0,.1.282,1.085,1.085,0,0,1,.083.353c-.013.2-.077.18-.268.225l-.757.18a.966.966,0,0,0-.6.328.533.533,0,0,0-.111.141.43.43,0,0,0-.033.126c-.021.138-.068.38.068.467a.728.728,0,0,0,.38-.017l.032-.064a.378.378,0,0,0,.188-.042.315.315,0,0,0,.154-.022,6.357,6.357,0,0,0,.926-.314,10.9,10.9,0,0,1,1.913-.973.416.416,0,0,1,.255-.043c-.027-.057.047-.106.106-.125q.289-.095.582-.187a5.121,5.121,0,0,1,.722-.243c.042-.089.146-.093.23-.111l.083-.017.039-.063.137-.038.037-.063a1.046,1.046,0,0,0,.343-.14,2.44,2.44,0,0,1,.521-.292.294.294,0,0,0,.091-.076.369.369,0,0,0,.237-.141h.1c.01-.058.022-.116.031-.173l.075-.03a4.667,4.667,0,0,0-.008-.715l-.037-.032a5.2,5.2,0,0,1-.026-.569,1.008,1.008,0,0,0-.071-.363,5.161,5.161,0,0,1-.054-.524,3,3,0,0,1,.023-.6c-.008-.126.031-.271-.061-.374-.032-.046-.088-.134-.142-.057l-.006-.023a.672.672,0,0,0-.466-.1,1.57,1.57,0,0,0-.4,0,.8.8,0,0,0-.489.075.592.592,0,0,1-.233.014c-.1.006-.175-.091-.277-.1a2.766,2.766,0,0,1-.389-.033.665.665,0,0,1,.012-.368l.095-.04.017-.089c.079,0,.138-.058.2-.095.07,0,.117-.073.179-.1l.11-.015c.01-.057.022-.113.035-.166a.189.189,0,0,0,.114-.151c-.2,0-.4.007-.605,0a.471.471,0,0,1-.283-.073,1.6,1.6,0,0,0-.239-.166.433.433,0,0,0-.133-.205c-.007-.162-.166-.24-.21-.385a.439.439,0,0,0,.2-.019l.02-.074c.2.014.354-.151.557-.133l.034-.062.2-.042c.095-.133.311-.155.446-.233a1.893,1.893,0,0,0,.513-.477,1.764,1.764,0,0,1,.333-.381,1.212,1.212,0,0,1,.615-.166,2.162,2.162,0,0,1,1.518.244,3.333,3.333,0,0,1,.857,1.232,4.372,4.372,0,0,0,.4.551c.146.2.339.368.471.582a4.362,4.362,0,0,0,.371.481,2.656,2.656,0,0,0,.472.445c.087.089.172.206.315.179.126.022.126-.129.145-.214l.146-.017a11.4,11.4,0,0,0-.006-1.746C154.274,179.382,154.292,179.261,154.268,179.151Z" transform="translate(-118.202 -150.667)" fill="#fff"/>
        <path id="Path_758" data-name="Path 758" d="M349.98,265.417c-.013-.094,0-.206-.078-.277a7.484,7.484,0,0,0,0,1.228c.067-.055.057-.15.072-.227A6.373,6.373,0,0,0,349.98,265.417Z" transform="translate(-313.694 -236.004)" fill="#fff"/>
      </g>
    </g>
  </g>
</svg>
